<?xml version="1.0" standalone="no"?>
<!DOCTYPE svg PUBLIC "-//W3C//DTD SVG 20010904//EN"
 "http://www.w3.org/TR/2001/REC-SVG-20010904/DTD/svg10.dtd">
<svg version="1.0" xmlns="http://www.w3.org/2000/svg"
 width="1400.000000pt" height="1400.000000pt" viewBox="0 0 1400.000000 1400.000000"
 preserveAspectRatio="xMidYMid meet">

<g transform="translate(0.000000,1400.000000) scale(0.100000,-0.100000)"
fill="#000000" stroke="none">
<path d="M9802 13730 c-96 -13 -168 -37 -267 -88 -72 -37 -108 -64 -180 -137
-50 -49 -105 -116 -124 -148 -64 -109 -110 -272 -111 -393 0 -77 27 -216 56
-290 99 -245 347 -446 579 -469 511 -49 826 -116 1525 -321 228 -67 518 -168
639 -222 51 -23 54 -22 -109 -52 -245 -45 -638 -139 -995 -236 -1086 -298
-2076 -682 -2880 -1117 -652 -352 -1167 -691 -1602 -1053 -564 -469 -1069
-1113 -1352 -1726 l-52 -114 -87 -28 c-124 -40 -345 -128 -496 -198 -1037
-480 -2050 -1384 -2828 -2523 -435 -638 -813 -1402 -1038 -2100 -181 -561
-280 -1032 -325 -1558 -12 -132 -13 -200 -6 -242 47 -290 314 -489 596 -445
197 30 373 182 430 370 10 36 19 123 25 250 25 517 95 939 240 1440 458 1581
1550 3118 2820 3970 177 119 394 242 398 226 2 -7 -8 -80 -22 -162 -14 -82
-30 -203 -37 -269 -17 -177 -14 -552 6 -720 57 -481 299 -979 657 -1350 188
-195 378 -335 617 -454 312 -154 645 -221 958 -193 76 7 177 21 226 32 202 44
451 147 614 253 384 249 681 684 812 1191 165 634 33 1305 -356 1804 -220 282
-504 486 -919 661 -265 111 -556 182 -869 211 -60 6 -110 12 -112 14 -5 4 148
219 247 346 265 340 749 835 1130 1154 829 696 2119 1258 3290 1436 305 46
796 85 991 78 l96 -3 -75 -130 c-124 -215 -271 -502 -504 -983 -121 -252 -288
-592 -371 -757 -82 -165 -172 -352 -200 -415 -45 -101 -51 -123 -51 -186 -1
-62 3 -77 29 -120 75 -120 242 -150 348 -63 19 16 68 75 108 131 189 267 461
581 720 833 85 83 303 280 484 440 589 517 804 725 928 897 73 103 164 266
235 425 33 72 75 151 94 175 86 106 121 206 121 343 0 122 -38 238 -110 332
-42 55 -187 133 -603 323 -268 122 -411 195 -522 267 -88 57 -424 291 -600
419 -809 590 -1734 1175 -1940 1230 -70 18 -199 25 -276 14z m-3356 -6781
c215 -20 438 -68 584 -126 181 -72 360 -217 482 -392 82 -117 162 -318 198
-494 116 -574 -86 -1148 -488 -1387 -318 -189 -660 -149 -1013 117 -273 205
-478 515 -536 807 -24 119 -23 489 1 656 36 249 95 475 179 685 l52 130 70 6
c124 10 359 9 471 -2z"/>
</g>
</svg>
